# xmcd CD database file
#
# Track frame offsets:
#	150
#	19724
#	34833
#	54382
#	70451
#	92995
#	110406
#	126700
#	141761
#	158526
#	176396
#
# Disc length: 2583 seconds
#
# Revision: 0
# Processed by: cddbd v1.5.2PL0 Copyright (c) Steve Scherf et al.
# Submitted via: CDex 1.40Beta9
#
DISCID=960a150b
DTITLE=Charlotte Kendrick - North of New York
DYEAR=2007
DGENRE=Country
TTITLE0=Thank You
TTITLE1=Off the Tracks
TTITLE2=Best of Me
TTITLE3=Yellow
TTITLE4=Drag You Down
TTITLE5=In Time
TTITLE6=Feels Right
TTITLE7=Caroline
TTITLE8=Too Nice
TTITLE9=Laces
TTITLE10=Let Go
EXTD=YEAR: 2007 ID3G: 2
EXTT0=
EXTT1=
EXTT2=
EXTT3=
EXTT4=
EXTT5=
EXTT6=
EXTT7=
EXTT8=
EXTT9=
EXTT10=
PLAYORDER=
